<svg width="800" height="500" viewBox="0 0 800 500" xmlns="http://www.w3.org/2000/svg">
  <rect width="800" height="500" rx="32" fill="#0f172a"/>
  <rect x="40" y="40" width="720" height="420" rx="24" fill="url(#bg)"/>
  <rect x="72" y="74" width="200" height="24" rx="12" fill="#ffffff" fill-opacity="0.86"/>
  <rect x="72" y="112" width="140" height="14" rx="7" fill="#ffffff" fill-opacity="0.65"/>
  <rect x="72" y="160" width="250" height="120" rx="16" fill="#fff" fill-opacity="0.95"/>
  <rect x="96" y="184" width="120" height="14" rx="7" fill="#6366f1"/>
  <rect x="96" y="214" width="180" height="10" rx="5" fill="#cbd5e1"/>
  <rect x="352" y="160" width="180" height="120" rx="16" fill="#fff" fill-opacity="0.95"/>
  <rect x="376" y="184" width="90" height="14" rx="7" fill="#ec4899"/>
  <rect x="376" y="214" width="130" height="10" rx="5" fill="#cbd5e1"/>
  <rect x="72" y="320" width="460" height="90" rx="16" fill="#ffffff" fill-opacity="0.9"/>
  <rect x="96" y="344" width="160" height="12" rx="6" fill="#0f172a"/>
  <rect x="96" y="372" width="220" height="10" rx="5" fill="#94a3b8"/>
  <circle cx="644" cy="352" r="52" fill="#ffffff" fill-opacity="0.92"/>
  <path d="M620 352h48M644 328v48" stroke="#8b5cf6" stroke-width="10" stroke-linecap="round"/>
  <defs>
    <linearGradient id="bg" x1="40" y1="40" x2="760" y2="460" gradientUnits="userSpaceOnUse">
      <stop stop-color="#3b82f6"/>
      <stop offset="1" stop-color="#ec4899"/>
    </linearGradient>
  </defs>
</svg>