<svg width="120" height="120" viewBox="0 0 120 120" xmlns="http://www.w3.org/2000/svg">
  <rect width="120" height="120" rx="24" fill="#f4f8ff"/>
  <path d="M44 24c-8 0-12 4-12 14v12h20v8H32c-8 0-14 4-14 16 0 12 8 16 16 16h10v-8H34c-4 0-6-2-6-8 0-6 2-8 8-8h16c7 0 12-4 12-14V38c0-8-5-14-12-14H44Zm20 0c-8 0-12 4-12 14v8h20v8H50c-8 0-14 4-14 16 0 12 8 16 16 16h10v-8H52c-4 0-6-2-6-8 0-6 2-8 8-8h16c7 0 12-4 12-14V38c0-8-5-14-12-14H64Z" fill="#3776ab"/>
  <circle cx="84" cy="84" r="8" fill="#ffd43b"/>
</svg>